<svg version="1.1" xmlns="http://www.w3.org/2000/svg" viewBox="0 0 200 200">
    <path fill="#C8D9DD"
          d="M190,0H10C4.5,0,0,4.5,0,10v10c0,5.5,4.5,10,10,10h180c5.5,0,10-4.5,10-10V10C200,4.5,195.5,0,190,0z"/>
    <path fill="#C8D9DD"
          d="M190,85H10C4.5,85,0,89.5,0,95v10c0,5.5,4.5,10,10,10h180c5.5,0,10-4.5,10-10V95C200,89.5,195.5,85,190,85z"/>
    <path fill="#C8D9DD" d="M190,170H10c-5.5,0-10,4.5-10,10v10c0,5.5,4.5,10,10,10h180c5.5,0,10-4.5,10-10v-10
	C200,174.5,195.5,170,190,170z"/>
</svg>
