<?xml version="1.0" encoding="utf-8"?>
<!-- Generator: Adobe Illustrator 19.2.0, SVG Export Plug-In . SVG Version: 6.00 Build 0)  -->
<svg version="1.1" id="Layer_1" xmlns="http://www.w3.org/2000/svg" xmlns:xlink="http://www.w3.org/1999/xlink" x="0px" y="0px"
	 viewBox="0 0 200 200" style="enable-background:new 0 0 200 200;" xml:space="preserve">
<style type="text/css">
	.st0{fill:#fff;}
</style>
<path class="st0" d="M100,0C44.8,0,0,44.8,0,100c0,55.2,44.8,100,100,100s100-44.8,100-100C200,44.8,155.2,0,100,0z M134.6,131.4
	c0,3.8-3.1,6.8-6.8,6.8H72.3c-3.8,0-6.8-3.1-6.8-6.8V68.7c0-3.8,3.1-6.8,6.8-6.8h55.5c3.8,0,6.8,3.1,6.8,6.8v18.6
	c0,1-0.8,1.8-1.8,1.8s-1.8-0.8-1.8-1.8V68.7c0-1.8-1.4-3.2-3.2-3.2H72.3c-1.8,0-3.2,1.4-3.2,3.2v62.8c0,1.8,1.4,3.2,3.2,3.2h55.5
	c1.8,0,3.2-1.4,3.2-3.2v-18.4c0-1,0.8-1.8,1.8-1.8s1.8,0.8,1.8,1.8V131.4z M163.3,100.4c0,0.1,0,0.1,0,0.2c0,0.1,0,0.1-0.1,0.2
	c0,0.1-0.1,0.1-0.1,0.2c0,0,0,0.1-0.1,0.1c-0.1,0.1-0.1,0.2-0.2,0.3c0,0,0,0,0,0l-8.3,8.3c-0.4,0.4-0.8,0.5-1.3,0.5
	s-0.9-0.2-1.3-0.5c-0.7-0.7-0.7-1.9,0-2.6l5.1-5.1H100c-1,0-1.8-0.8-1.8-1.8s0.8-1.8,1.8-1.8h57.1l-5.1-5.1c-0.7-0.7-0.7-1.9,0-2.6
	c0.7-0.7,1.9-0.7,2.6,0l8.3,8.3c0,0,0,0,0,0l0,0c0,0,0,0,0,0c0.1,0.1,0.2,0.2,0.2,0.3c0,0,0.1,0.1,0.1,0.1c0,0.1,0.1,0.1,0.1,0.2
	c0,0.1,0,0.1,0.1,0.2c0,0.1,0,0.1,0,0.2c0,0,0,0,0,0C163.3,99.9,163.3,100.2,163.3,100.4z"/>
</svg>
