<?xml version="1.0" encoding="utf-8"?>
<!-- Generator: Adobe Illustrator 19.2.0, SVG Export Plug-In . SVG Version: 6.00 Build 0)  -->
<svg version="1.1" id="Layer_1" xmlns="http://www.w3.org/2000/svg" xmlns:xlink="http://www.w3.org/1999/xlink" x="0px" y="0px"
	 viewBox="0 0 200 200" style="enable-background:new 0 0 200 200;" xml:space="preserve">
<style type="text/css">
	.st0{fill:#010202;}
</style>
<g>
	<path class="st0" d="M100,0C44.8,0,0,44.8,0,100s44.8,100,100,100c55.2,0,100-44.8,100-100S155.2,0,100,0z M168.1,168.1
		c-8.8,8.8-19.2,15.8-30.6,20.6c-11.9,5-24.5,7.6-37.5,7.6s-25.6-2.5-37.5-7.6C51,183.9,40.7,177,31.9,168.1
		c-8.8-8.8-15.8-19.2-20.6-30.6c-5-11.9-7.6-24.5-7.6-37.5s2.5-25.6,7.6-37.5C16.1,51,23,40.7,31.9,31.9C40.7,23,51,16.1,62.5,11.2
		C74.4,6.2,87,3.7,100,3.7s25.6,2.5,37.5,7.6c11.5,4.9,21.8,11.8,30.6,20.6c8.8,8.8,15.8,19.2,20.6,30.6c5,11.9,7.6,24.5,7.6,37.5
		s-2.5,25.6-7.6,37.5C183.9,149,177,159.3,168.1,168.1z"/>
	<path class="st0" d="M46.7,70.4v14.8h3.7V70.4c0-6.1,5-11.1,11.1-11.1h14.8v-3.7H61.4C53.3,55.7,46.7,62.3,46.7,70.4z"/>
	<path class="st0" d="M138.6,55.7h-14.8v3.7h14.8c6.1,0,11.1,5,11.1,11.1v14.8h3.7V70.4C153.3,62.3,146.7,55.7,138.6,55.7z"/>
	<path class="st0" d="M50.4,129.6v-14.8h-3.7v14.8c0,8.1,6.6,14.7,14.7,14.7h14.8v-3.7H61.4C55.3,140.6,50.4,135.7,50.4,129.6z"/>
	<path class="st0" d="M149.6,129.6c0,6.1-5,11.1-11.1,11.1h-14.8v3.7h14.8c8.1,0,14.7-6.6,14.7-14.7v-14.8h-3.7V129.6z"/>
</g>
</svg>
