<?xml version="1.0" encoding="utf-8"?>
<!-- Generator: Adobe Illustrator 19.2.0, SVG Export Plug-In . SVG Version: 6.00 Build 0)  -->
<svg version="1.1" id="Layer_1" xmlns="http://www.w3.org/2000/svg" xmlns:xlink="http://www.w3.org/1999/xlink" x="0px" y="0px"
	 viewBox="0 0 200 200" style="enable-background:new 0 0 200 200;" xml:space="preserve">
<style type="text/css">
	.st0{fill:#010202;}
</style>
<g>
	<path class="st0" d="M100,0C44.7,0,0,44.8,0,100c0,55.2,44.8,100,100,100s100-44.8,100-100C200,44.8,155.2,0,100,0z M168.1,168.1
		c-8.8,8.8-19.2,15.8-30.6,20.6c-11.9,5-24.5,7.6-37.5,7.6s-25.6-2.5-37.5-7.6C51,183.9,40.7,177,31.8,168.1
		C23,159.3,16,149,11.2,137.5c-5-11.9-7.6-24.5-7.6-37.5c0-13,2.5-25.6,7.6-37.5C16,51,23,40.7,31.8,31.9C40.7,23,51,16.1,62.5,11.2
		C74.3,6.2,87,3.6,100,3.6s25.6,2.5,37.5,7.6c11.5,4.9,21.8,11.8,30.6,20.6c8.8,8.8,15.8,19.2,20.6,30.6c5,11.9,7.6,24.5,7.6,37.5
		c0,13-2.5,25.6-7.6,37.5C183.9,149,176.9,159.3,168.1,168.1z"/>
	<path class="st0" d="M145.5,92.7L83.2,57c-1.3-0.8-2.7-1.1-4.1-1.1v3.7c0.8,0,1.5,0.2,2.3,0.6l62.3,35.7c2.1,1.2,2.3,3.2,2.3,4
		c0,0.8-0.2,2.8-2.3,4l-62.3,36.1c-0.7,0.4-1.5,0.6-2.3,0.6c-2.2,0-4.6-1.8-4.6-4.6V64.1c0-2.8,2.4-4.6,4.6-4.6l0-3.7c0,0,0,0,0,0
		c-4.3,0-8.2,3.4-8.2,8.2V136c0,4.8,3.9,8.2,8.2,8.2c1.4,0,2.8-0.4,4.1-1.1l62.3-36.1C151,103.8,151,95.9,145.5,92.7z"/>
</g>
</svg>
