<svg version="1.1" xmlns="http://www.w3.org/2000/svg" viewBox="0 0 200 234">
    <path fill="#fff" d="M14.6,76H14C6.3,76,0,82.3,0,90v60.7c0,7.7,6.3,14,14,14h0.6c7.7,0,14-6.3,14-14V90C28.5,82.3,22.3,76,14.6,76
		z"/>
    <path fill="#fff" d="M35.2,174.1c0,7.1,5.8,12.8,12.8,12.8h13.7v32.8c0,7.7,6.3,14,14,14h0.6c7.7,0,14-6.3,14-14v-32.8h19.2v32.8
		c0,7.7,6.3,14,14,14h0.6c7.7,0,14-6.3,14-14v-32.8h13.7c7.1,0,12.8-5.7,12.8-12.8V78.2H35.2V174.1z"/>
    <path fill="#fff" d="M132.2,20.1l10.9-16.8c0.7-1.1,0.4-2.5-0.7-3.2c-1.1-0.7-2.5-0.4-3.2,0.7l-11.3,17.4c-8.5-3.5-18-5.4-28-5.4
		c-10,0-19.5,1.9-28,5.4L60.7,0.8c-0.7-1.1-2.2-1.4-3.2-0.7c-1.1,0.7-1.4,2.1-0.7,3.2l10.9,16.8c-19.7,9.6-32.9,27.8-32.9,48.6
		c0,1.3,0.1,2.5,0.2,3.8h130c0.1-1.2,0.2-2.5,0.2-3.8C165.2,47.8,151.9,29.7,132.2,20.1z M69.9,50.2c-3.5,0-6.3-2.8-6.3-6.2
		s2.8-6.2,6.3-6.2c3.5,0,6.3,2.8,6.3,6.2S73.3,50.2,69.9,50.2z M130.1,50.2c-3.5,0-6.3-2.8-6.3-6.2s2.8-6.2,6.3-6.2
		c3.5,0,6.2,2.8,6.2,6.2C136.4,47.4,133.6,50.2,130.1,50.2z"/>
    <path fill="#fff" d="M186,76h-0.6c-7.7,0-14,6.3-14,13.9v60.7c0,7.7,6.3,14,14,14h0.6c7.7,0,14-6.3,14-14V90
		C200,82.3,193.7,76,186,76z"/>
</svg>
