<svg version="1.1" xmlns="http://www.w3.org/2000/svg" viewBox="0 0 200 244">
	<path id="XMLID_229_" fill="#fff" d="M10.3,89.7c-20.7,35.8-7.5,90.1,15.3,123.1c11.4,16.5,23,31.2,38.8,31.2c0.3,0,0.6,0,0.9,0
		c7.4-0.3,12.8-2.6,18-4.8c5.8-2.5,11.9-5,21.3-5c9,0,14.8,2.5,20.3,4.9c5.5,2.4,11.1,4.8,19.5,4.7c17.8-0.3,28.8-16.3,38.5-30.4
		c10.1-14.7,15.1-29,16.8-34.4l0.1-0.2c0.3-1-0.1-2-1.1-2.5c0,0-0.1-0.1-0.1-0.1c-3.1-1.3-30.7-13.5-31-46.7
		c-0.3-27,20.7-41.3,24.9-43.9l0.2-0.1c0.5-0.3,0.8-0.8,0.9-1.3c0.1-0.5,0-1.1-0.3-1.5c-14.5-21.1-36.6-24.3-45.5-24.7
		c-1.3-0.1-2.6-0.2-4-0.2c-10.5,0-20.5,3.9-28.6,7.1c-5.6,2.2-10.4,4.1-13.7,4.1c-3.7,0-8.6-1.9-14.2-4.1c-7.5-3-16-6.3-25-6.3
		c-0.2,0-0.4,0-0.6,0C40.9,58.9,21.2,70.8,10.3,89.7z"/>
	<path id="XMLID_230_" fill="#fff" d="M147.8,0c-12.6,0.5-27.8,8.3-36.9,18.9c-7.7,8.9-15.2,23.7-13.3,38.7c0.1,0.9,0.9,1.7,1.8,1.7
		c0.9,0.1,1.7,0.1,2.6,0.1c12.4,0,25.7-6.8,34.8-17.8c9.6-11.6,14.4-26.5,13-39.8C149.8,0.7,148.9,0,147.8,0z"/>
</svg>
