<svg version="1.1" xmlns="http://www.w3.org/2000/svg" viewBox="0 0 200 200">
	<path d="M182.3,65.4c-7.8-2.1-26.2-2-53.1-2.7c1.3-5.9,1.6-11.2,1.6-20.5C130.7,19.7,114.4,0,99.9,0C89.7,0,81.3,8.3,81.1,18.6
		c-0.1,12.6-4,34.3-25,45.4c-0.4,0.2-1.1,0.6-1.8,0.9c-0.1-3.3-2.8-6-6.2-6H6.3c-3.5,0-6.3,2.8-6.3,6.3v124.4c0,3.5,2.8,6.3,6.3,6.3
		h41.8c3.5,0,6.3-2.8,6.3-6.3v-0.1c0.7,0.1,1.3,0.2,1.5,0.3c0.1,0,0.2,0,0.3,0.1c3.6,0.9,10.5,2.5,25.4,6c3.2,0.7,20,4.3,37.4,4.3
		H153c10.4,0,17.9-4,22.4-12.1c0.1-0.1,1.5-2.9,2.7-6.7c0.9-2.9,1.2-6.9,0.1-11c6.7-4.6,8.9-11.6,10.3-16.1c2.4-7.4,1.7-13,0-17
		c3.8-3.6,7-9,8.4-17.3c0.8-5.1-0.1-10.4-2.4-14.8c3.5-4,5.2-9,5.3-13.6l0.1-1.3c0-0.8,0.1-1.3,0.1-3.1
		C200,79,194.5,68.9,182.3,65.4z M27.9,176.3c-5.2,0-9.4-4.2-9.4-9.4s4.2-9.4,9.4-9.4c5.2,0,9.4,4.2,9.4,9.4S33.1,176.3,27.9,176.3z
		 M187.3,90.8c-0.1,3.1-1.4,9.2-12.4,9.2c-9.4,0-12.5,0-12.5,0c-1.7,0-3.1,1.4-3.1,3.1s1.4,3.1,3.1,3.1c0,0,2.7,0,12.1,0
		c9.4,0,10.6,7.8,10,11.5c-0.8,4.7-3,13.5-13.5,13.5c-10.6,0-14.9,0-14.9,0c-1.7,0-3.1,1.4-3.1,3.1c0,1.7,1.4,3.1,3.1,3.1
		c0,0,7.4,0,12.3,0c10.6,0,9.6,8,8.1,12.8c-2,6.3-3.2,12.2-16.5,12.2c-4.5,0-10.2,0-10.2,0c-1.7,0-3.1,1.4-3.1,3.1
		c0,1.7,1.4,3.1,3.1,3.1c0,0,4.3,0,9.8,0c6.8,0,7.2,6.5,6.5,8.8c-0.8,2.5-1.7,4.4-1.7,4.5c-1.9,3.4-4.9,5.5-11.4,5.5h-34.2
		c-17.2,0-34.2-3.9-34.7-4c-26-6-27.4-6.4-29-6.9c0,0-0.4-0.1-0.9-0.2V78.5c0.2-0.1,0.3-0.2,0.5-0.3c0.4-0.1,0.9-0.3,1.3-0.5
		C84.7,66,93.4,40,93.6,18.7c0-3,2.3-6.2,6.3-6.2c6.6,0,18.3,13.3,18.3,29.7c0,14.8-0.6,17.4-5.8,32.8c62.6,0,62.1,0.9,67.6,2.3
		c6.8,2,7.4,7.6,7.4,9.6C187.5,89.1,187.4,88.7,187.3,90.8z"/>
	<ellipse cx="27.9" cy="166.9" rx="3.1" ry="3.1"/>
</svg>
